<svg width="27" height="26" viewBox="0 0 27 26" fill="none" xmlns="http://www.w3.org/2000/svg">
	<path
		d="M13.5 0C6.09305 0 0.0666504 5.832 0.0666504 13C0.0666504 20.168 6.09305 26 13.5 26C20.9069 26 26.9333 20.168 26.9333 13C26.9333 5.832 20.9069 0 13.5 0ZM10.0549 4H16.9431C20.1723 4 22.8 6.54202 22.8 9.66602V16.332C22.8 19.457 20.1732 22 16.9451 22H10.0569C6.82772 22 4.19998 19.458 4.19998 16.334V9.66797C4.19998 6.54297 6.82673 4 10.0549 4ZM10.0549 6C7.9665 6 6.26665 7.64597 6.26665 9.66797V16.334C6.26665 18.355 7.96749 20 10.0569 20H16.9451C19.0335 20 20.7333 18.354 20.7333 16.332V9.66602C20.7333 7.64502 19.0325 6 16.9431 6H10.0549ZM18.3236 7.66602C18.7038 7.66602 19.0118 7.96403 19.0118 8.33203C19.0118 8.70003 18.7038 9 18.3236 9C17.9433 9 17.6333 8.70003 17.6333 8.33203C17.6333 7.96403 17.9433 7.66602 18.3236 7.66602ZM13.5 8C16.3489 8 18.6667 10.243 18.6667 13C18.6667 15.757 16.3489 18 13.5 18C10.6511 18 8.33332 15.757 8.33332 13C8.33332 10.243 10.6511 8 13.5 8ZM13.5 10C12.6778 10 11.8893 10.3161 11.308 10.8787C10.7266 11.4413 10.4 12.2044 10.4 13C10.4 13.7956 10.7266 14.5587 11.308 15.1213C11.8893 15.6839 12.6778 16 13.5 16C14.3222 16 15.1107 15.6839 15.692 15.1213C16.2734 14.5587 16.6 13.7956 16.6 13C16.6 12.2044 16.2734 11.4413 15.692 10.8787C15.1107 10.3161 14.3222 10 13.5 10Z"
		fill="white"
	/>
</svg>
