;<svg width="100" height="91" viewBox="0 0 100 91" fill="none" xmlns="http://www.w3.org/2000/svg">
	<path
		d="M100 45.8879C100 47.3819 100 48.8399 99.76 50.2799C99.76 50.8559 99.62 51.4319 99.54 52.0799C97.9841 62.2805 92.5884 71.6923 84.2535 78.745C75.9185 85.7977 65.1483 90.0647 53.74 90.8339C53 90.8339 52.28 90.8339 51.54 90.9419H50C40.1135 90.9419 30.4489 88.304 22.2277 83.3618C14.0066 78.4195 7.59792 71.3946 3.81178 63.1751C0.0256395 54.9556 -0.968025 45.9103 0.956378 37.1827C2.88078 28.455 7.63687 20.4367 14.6235 14.1412C21.6101 7.84569 30.5136 3.5556 40.2087 1.81317C49.9038 0.070743 59.9553 0.954192 69.0926 4.35186C78.23 7.74952 86.043 13.5089 91.5443 20.902C97.0456 28.2951 99.9881 36.9901 100 45.8879Z"
		fill="#EC5B25"
	/>
	<path
		d="M58 38.112C58.2431 37.899 58.4364 37.6443 58.5683 37.363C58.7002 37.0816 58.7682 36.7794 58.7682 36.474C58.7682 36.1686 58.7002 35.8663 58.5683 35.585C58.4364 35.3037 58.2431 35.049 58 34.836L47.74 25.602C47.2565 25.1689 46.6021 24.9258 45.92 24.9258C45.2379 24.9258 44.5835 25.1689 44.1 25.602L42.96 26.628C42.6725 26.8904 42.4598 27.2116 42.34 27.564L41.54 26.844C41.2683 26.5958 40.9445 26.3987 40.5874 26.2642C40.2303 26.1297 39.8471 26.0604 39.46 26.0604C39.0729 26.0604 38.6897 26.1297 38.3326 26.2642C37.9755 26.3987 37.6517 26.5958 37.38 26.844L35.84 28.23C35.2928 28.7286 34.986 29.4012 34.986 30.102C34.986 30.8028 35.2928 31.4754 35.84 31.974L40.52 36.204L26.26 49.038L21.66 44.808C21.106 44.3155 20.3587 44.0394 19.58 44.0394C18.8013 44.0394 18.054 44.3155 17.5 44.808L16 46.212C15.7242 46.4565 15.5053 46.7479 15.3558 47.0693C15.2064 47.3907 15.1294 47.7356 15.1294 48.084C15.1294 48.4324 15.2064 48.7773 15.3558 49.0987C15.5053 49.42 15.7242 49.7115 16 49.956L16.8 50.676C16.4022 50.7831 16.0388 50.9745 15.74 51.234L14.62 52.242C14.1388 52.6771 13.8687 53.2661 13.8687 53.88C13.8687 54.4939 14.1388 55.0828 14.62 55.518L24.88 64.752C25.1181 64.9686 25.4015 65.1405 25.7139 65.2579C26.0263 65.3753 26.3615 65.4357 26.7 65.4357C27.0385 65.4357 27.3737 65.3753 27.6861 65.2579C27.9985 65.1405 28.2819 64.9686 28.52 64.752L29.66 63.744C29.9475 63.4815 30.1602 63.1604 30.28 62.808L31.08 63.528C31.6132 64.0053 32.3283 64.282 33.08 64.302C33.8304 64.2767 34.5434 64.0008 35.08 63.528L36.62 62.142C36.8957 61.8975 37.1147 61.606 37.2642 61.2847C37.4136 60.9633 37.4906 60.6184 37.4906 60.27C37.4906 59.9216 37.4136 59.5767 37.2642 59.2553C37.1147 58.9339 36.8957 58.6425 36.62 58.398L32 54.168L46.26 41.334L50.94 45.546C51.47 46.0299 52.1855 46.3132 52.94 46.338C53.6959 46.3188 54.4136 46.0346 54.94 45.546L56.5 44.16C57.0303 43.6801 57.3378 43.0365 57.36 42.36C57.3339 41.6842 57.027 41.0419 56.5 40.56L55.7 39.84C56.0916 39.7322 56.4484 39.5407 56.74 39.282L58 38.112ZM28.62 62.844L27.5 63.87C27.2791 64.0667 26.9808 64.1771 26.67 64.1771C26.3592 64.1771 26.0609 64.0667 25.84 63.87L15.56 54.636C15.3461 54.4349 15.2267 54.1673 15.2267 53.889C15.2267 53.6106 15.3461 53.343 15.56 53.142L16.7 52.116C16.9234 51.9235 17.2207 51.816 17.53 51.816C17.8393 51.816 18.1366 51.9235 18.36 52.116L23.5 56.688L28.62 61.296C28.7374 61.3953 28.8311 61.5152 28.895 61.6483C28.959 61.7814 28.992 61.9249 28.992 62.07C28.992 62.215 28.959 62.3585 28.895 62.4916C28.8311 62.6248 28.7374 62.7447 28.62 62.844ZM35.76 59.244C35.9033 59.3727 36.017 59.5256 36.0946 59.694C36.1722 59.8623 36.2121 60.0427 36.2121 60.225C36.2121 60.4072 36.1722 60.5877 36.0946 60.756C36.017 60.9243 35.9033 61.0772 35.76 61.206L34.2 62.592C34.0583 62.7232 33.8889 62.8274 33.7017 62.8986C33.5144 62.9698 33.3132 63.0065 33.11 63.0065C32.9067 63.0065 32.7056 62.9698 32.5183 62.8986C32.3311 62.8274 32.1617 62.7232 32.02 62.592L24.48 55.806L16.94 49.056C16.7967 48.9272 16.683 48.7743 16.6054 48.606C16.5278 48.4377 16.4879 48.2572 16.4879 48.075C16.4879 47.8927 16.5278 47.7123 16.6054 47.544C16.683 47.3756 16.7967 47.2227 16.94 47.094L18.48 45.708C18.7737 45.4476 19.1678 45.2993 19.58 45.294C19.9931 45.2955 20.3887 45.4443 20.68 45.708L35.76 59.244ZM56.18 42.288C56.1814 42.4724 56.1414 42.6551 56.0624 42.8253C55.9833 42.9954 55.8669 43.1494 55.72 43.278L54.18 44.664C54.037 44.793 53.8671 44.8953 53.68 44.9651C53.493 45.0349 53.2925 45.0709 53.09 45.0709C52.8875 45.0709 52.687 45.0349 52.5 44.9651C52.3129 44.8953 52.143 44.793 52 44.664L36.92 31.092C36.7767 30.9633 36.663 30.8103 36.5854 30.642C36.5078 30.4737 36.4679 30.2932 36.4679 30.111C36.4679 29.9287 36.5078 29.7483 36.5854 29.58C36.663 29.4116 36.7767 29.2587 36.92 29.13L38.46 27.726C38.7538 27.474 39.1441 27.3334 39.55 27.3334C39.9559 27.3334 40.3462 27.474 40.64 27.726L55.72 41.316C55.8663 41.4412 55.9825 41.592 56.0617 41.7592C56.1408 41.9263 56.181 42.1063 56.18 42.288ZM54.3 38.256L44 29.004C43.7814 28.8052 43.6587 28.5367 43.6587 28.257C43.6587 27.9773 43.7814 27.7088 44 27.51L45.14 26.502C45.3609 26.3052 45.6592 26.1949 45.97 26.1949C46.2808 26.1949 46.5791 26.3052 46.8 26.502L57.06 35.736C57.2786 35.9348 57.4013 36.2033 57.4013 36.483C57.4013 36.7627 57.2786 37.0312 57.06 37.23L55.92 38.256C55.6988 38.4381 55.4098 38.5391 55.11 38.5391C54.8102 38.5391 54.5212 38.4381 54.3 38.256Z"
		fill="#3B3529"
	/>
	<path
		d="M35.7599 61.2424L34.1999 62.6284C34.0583 62.7596 33.8888 62.8639 33.7016 62.9351C33.5144 63.0063 33.3132 63.043 33.1099 63.043C32.9067 63.043 32.7055 63.0063 32.5182 62.9351C32.331 62.8639 32.1616 62.7596 32.0199 62.6284L24.4799 55.8424L16.9399 49.0564C16.7966 48.9277 16.6829 48.7748 16.6053 48.6065C16.5277 48.4381 16.4878 48.2577 16.4878 48.0754C16.4878 47.8932 16.5277 47.7127 16.6053 47.5444C16.6829 47.3761 16.7966 47.2232 16.9399 47.0944L18.4799 45.7084C18.7736 45.448 19.1677 45.2997 19.5799 45.2944C19.993 45.2959 20.3886 45.4448 20.6799 45.7084L35.7599 59.2804C35.9032 59.4092 36.0169 59.5621 36.0945 59.7304C36.1721 59.8987 36.212 60.0792 36.212 60.2614C36.212 60.4437 36.1721 60.6241 36.0945 60.7924C36.0169 60.9608 35.9032 61.1137 35.7599 61.2424Z"
		fill="white"
	/>
	<path
		d="M28.6199 62.8434L27.4999 63.8694C27.279 64.0662 26.9807 64.1766 26.6699 64.1766C26.3591 64.1766 26.0608 64.0662 25.8399 63.8694L15.5599 54.6354C15.346 54.4344 15.2266 54.1668 15.2266 53.8884C15.2266 53.6101 15.346 53.3425 15.5599 53.1414L16.6999 52.1154C16.9233 51.9229 17.2206 51.8154 17.5299 51.8154C17.8392 51.8154 18.1365 51.9229 18.3599 52.1154L23.4999 56.6874L28.6199 61.2954C28.7374 61.3947 28.831 61.5147 28.8949 61.6478C28.9589 61.7809 28.9919 61.9244 28.9919 62.0694C28.9919 62.2145 28.9589 62.358 28.8949 62.4911C28.831 62.6242 28.7374 62.7441 28.6199 62.8434Z"
		fill="white"
	/>
	<path
		d="M45.167 26.513L44.0492 27.518C43.5881 27.9325 43.5877 28.6049 44.0483 29.0199L54.296 38.2525C54.7566 38.6674 55.5037 38.6678 55.9648 38.2533L57.0826 37.2483C57.5436 36.8338 57.544 36.1613 57.0834 35.7464L46.8358 26.5138C46.3752 26.0989 45.6281 26.0985 45.167 26.513Z"
		fill="white"
	/>
	<path
		d="M56.1799 42.2876C56.1813 42.472 56.1413 42.6547 56.0622 42.8249C55.9832 42.995 55.8667 43.149 55.7199 43.2776L54.1799 44.6636C54.0368 44.7926 53.8669 44.8949 53.6799 44.9647C53.4929 45.0345 53.2924 45.0705 53.0899 45.0705C52.8874 45.0705 52.6869 45.0345 52.4999 44.9647C52.3128 44.8949 52.1429 44.7926 51.9999 44.6636L36.9199 31.0916C36.7766 30.9628 36.6629 30.8099 36.5853 30.6416C36.5077 30.4733 36.4678 30.2928 36.4678 30.1106C36.4678 29.9283 36.5077 29.7479 36.5853 29.5796C36.6629 29.4112 36.7766 29.2583 36.9199 29.1296L38.4599 27.7256C38.7537 27.4736 39.144 27.333 39.5499 27.333C39.9558 27.333 40.3461 27.4736 40.6399 27.7256L55.7199 41.3156C55.8662 41.4408 55.9824 41.5916 56.0615 41.7588C56.1406 41.9259 56.1809 42.1059 56.1799 42.2876Z"
		fill="white"
	/>
	<path
		d="M83.6796 40.9914C83.9221 40.7799 84.115 40.5268 84.2467 40.2469C84.3784 39.9671 84.4462 39.6663 84.4462 39.3624C84.4462 39.0585 84.3784 38.7577 84.2467 38.4778C84.115 38.198 83.9221 37.9448 83.6796 37.7334L73.4196 28.4814C72.9361 28.0483 72.2817 27.8052 71.5996 27.8052C70.9175 27.8052 70.2631 28.0483 69.7796 28.4814L68.6396 29.5074C68.3521 29.7698 68.1394 30.091 68.0196 30.4434L67.2396 29.7234C66.9662 29.4747 66.6407 29.2772 66.282 29.1425C65.9232 29.0077 65.5383 28.9383 65.1496 28.9383C64.7609 28.9383 64.376 29.0077 64.0172 29.1425C63.6585 29.2772 63.333 29.4747 63.0596 29.7234L61.5196 31.1094C60.9724 31.608 60.6656 32.2806 60.6656 32.9814C60.6656 33.6822 60.9724 34.3548 61.5196 34.8534L66.1996 39.0834L51.9996 51.9174L47.2596 47.6874C46.9865 47.4414 46.6623 47.2462 46.3054 47.1131C45.9485 46.9799 45.5659 46.9114 45.1796 46.9114C44.7932 46.9114 44.4107 46.9799 44.0538 47.1131C43.6969 47.2462 43.3726 47.4414 43.0996 47.6874L41.5596 49.0734C41.2832 49.3194 41.0639 49.6124 40.9141 49.9353C40.7644 50.2581 40.6873 50.6045 40.6873 50.9544C40.6873 51.3042 40.7644 51.6506 40.9141 51.9735C41.0639 52.2964 41.2832 52.5893 41.5596 52.8354L42.3596 53.5554C41.966 53.6591 41.6081 53.8511 41.3196 54.1134L40.1796 55.1214C39.9389 55.3356 39.7479 55.5907 39.6175 55.8719C39.4871 56.1531 39.4199 56.4547 39.4199 56.7594C39.4199 57.0641 39.4871 57.3657 39.6175 57.6469C39.7479 57.928 39.9389 58.1831 40.1796 58.3974L50.4396 67.6314C50.6777 67.848 50.9611 68.0199 51.2735 68.1373C51.5859 68.2547 51.9211 68.3151 52.2596 68.3151C52.5981 68.3151 52.9333 68.2547 53.2457 68.1373C53.5581 68.0199 53.8415 67.848 54.0796 67.6314L55.2196 66.6234C55.5071 66.3609 55.7198 66.0398 55.8396 65.6874L56.6396 66.4074C57.1728 66.8847 57.8879 67.1614 58.6396 67.1814C59.39 67.1561 60.103 66.8802 60.6396 66.4074L62.1796 65.0034C62.4553 64.7589 62.6743 64.4674 62.8238 64.1461C62.9732 63.8247 63.0502 63.4798 63.0502 63.1314C63.0502 62.783 62.9732 62.4381 62.8238 62.1167C62.6743 61.7953 62.4553 61.5039 62.1796 61.2594L57.6596 57.0474L71.9996 44.2134L76.6796 48.4254C77.2073 48.9124 77.9242 49.1963 78.6796 49.2174C79.4355 49.1982 80.1532 48.914 80.6796 48.4254L82.2396 47.0394C82.5129 46.7936 82.7298 46.5018 82.8777 46.1806C83.0257 45.8594 83.1018 45.5151 83.1018 45.1674C83.1018 44.8197 83.0257 44.4754 82.8777 44.1541C82.7298 43.8329 82.5129 43.5411 82.2396 43.2954L81.4396 42.5754C81.8312 42.4675 82.188 42.2761 82.4796 42.0174L83.6796 40.9914ZM54.2196 65.6874L53.0996 66.7134C52.8787 66.9101 52.5804 67.0205 52.2696 67.0205C51.9588 67.0205 51.6605 66.9101 51.4396 66.7134L41.1596 57.4794C41.0504 57.3797 40.9641 57.2617 40.9057 57.1319C40.8474 57.0022 40.8181 56.8633 40.8196 56.7234C40.8197 56.4465 40.942 56.1811 41.1596 55.9854L42.2996 54.9594C42.523 54.7668 42.8203 54.6594 43.1296 54.6594C43.4389 54.6594 43.7362 54.7668 43.9596 54.9594L54.2196 64.1934C54.4382 64.3922 54.5608 64.6606 54.5608 64.9404C54.5608 65.2201 54.4382 65.4885 54.2196 65.6874ZM61.3596 62.0874C61.5029 62.2161 61.6166 62.369 61.6942 62.5374C61.7718 62.7057 61.8117 62.8861 61.8117 63.0684C61.8117 63.2506 61.7718 63.4311 61.6942 63.5994C61.6166 63.7677 61.5029 63.9206 61.3596 64.0494L59.7996 65.4354C59.6579 65.5666 59.4885 65.6708 59.3013 65.742C59.114 65.8132 58.9128 65.8499 58.7096 65.8499C58.5063 65.8499 58.3052 65.8132 58.1179 65.742C57.9307 65.6708 57.7613 65.5666 57.6196 65.4354L55.2196 63.2754L44.9396 54.0414L42.5396 51.8634C42.3963 51.7346 42.2826 51.5817 42.205 51.4134C42.1274 51.2451 42.0875 51.0646 42.0875 50.8824C42.0875 50.7001 42.1274 50.5197 42.205 50.3514C42.2826 50.183 42.3963 50.0301 42.5396 49.9014L44.0996 48.5154C44.238 48.3829 44.4054 48.2776 44.5913 48.2064C44.7772 48.1351 44.9775 48.0994 45.1796 48.1014C45.3845 48.1001 45.5875 48.1361 45.7766 48.2073C45.9656 48.2784 46.1367 48.3832 46.2796 48.5154L53.8196 55.3014L56.1796 57.4254L61.3596 62.0874ZM81.7796 45.1674C81.781 45.3518 81.741 45.5345 81.662 45.7047C81.5829 45.8748 81.4665 46.0288 81.3196 46.1574L79.7796 47.5434C79.6366 47.6724 79.4667 47.7747 79.2796 47.8445C79.0926 47.9143 78.8921 47.9503 78.6896 47.9503C78.4871 47.9503 78.2866 47.9143 78.0996 47.8445C77.9125 47.7747 77.7426 47.6724 77.5996 47.5434L72.4196 42.8814L69.9996 40.7574L62.4396 33.9714C62.2963 33.8426 62.1826 33.6897 62.105 33.5214C62.0274 33.3531 61.9875 33.1726 61.9875 32.9904C61.9875 32.8081 62.0274 32.6277 62.105 32.4594C62.1826 32.291 62.2963 32.1381 62.4396 32.0094L63.9996 30.6054C64.1426 30.4764 64.3125 30.3741 64.4996 30.3042C64.6866 30.2344 64.8871 30.1985 65.0896 30.1985C65.2921 30.1985 65.4926 30.2344 65.6796 30.3042C65.8667 30.3741 66.0366 30.4764 66.1796 30.6054L81.2596 44.1774C81.4174 44.3013 81.545 44.4531 81.6345 44.6235C81.7239 44.7939 81.7734 44.979 81.7796 45.1674ZM79.9996 41.1354L69.7396 31.8834C69.521 31.6845 69.3983 31.4161 69.3983 31.1364C69.3983 30.8567 69.521 30.5882 69.7396 30.3894L70.8796 29.3814C70.9844 29.28 71.1113 29.1991 71.2524 29.1438C71.3935 29.0885 71.5457 29.06 71.6996 29.06C71.8535 29.06 72.0057 29.0885 72.1468 29.1438C72.2879 29.1991 72.4148 29.28 72.5196 29.3814L82.6996 38.6874C82.9182 38.8862 83.0409 39.1546 83.0409 39.4344C83.0409 39.7141 82.9182 39.9825 82.6996 40.1814L81.5596 41.2074C81.3328 41.3649 81.0509 41.4443 80.7648 41.4311C80.4787 41.4179 80.2073 41.313 79.9996 41.1354Z"
		fill="#3B3529"
	/>
	<path
		d="M82.6996 40.1095L81.5596 41.1355C81.3362 41.328 81.0389 41.4355 80.7296 41.4355C80.4203 41.4355 80.123 41.328 79.8996 41.1355L69.6396 31.8835C69.421 31.6846 69.2983 31.4162 69.2983 31.1365C69.2983 30.8567 69.421 30.5883 69.6396 30.3895L70.7796 29.3815C70.8844 29.2801 71.0113 29.1992 71.1524 29.1439C71.2935 29.0886 71.4457 29.0601 71.5996 29.0601C71.7535 29.0601 71.9057 29.0886 72.0468 29.1439C72.1879 29.1992 72.3148 29.2801 72.4196 29.3815L82.6996 38.6875C82.8949 38.8825 83.0031 39.1358 83.0031 39.3985C83.0031 39.6611 82.8949 39.9144 82.6996 40.1095Z"
		fill="white"
	/>
	<path
		d="M81.7799 45.1681C81.7813 45.3525 81.7413 45.5353 81.6623 45.7054C81.5832 45.8755 81.4668 46.0295 81.3199 46.1581L79.7799 47.5441C79.6369 47.6731 79.467 47.7754 79.2799 47.8453C79.0929 47.9151 78.8924 47.951 78.6899 47.951C78.4874 47.951 78.2869 47.9151 78.0999 47.8453C77.9129 47.7754 77.7429 47.6731 77.5999 47.5441L72.4199 42.8821L69.9999 40.7581L62.4399 33.9721C62.2966 33.8434 62.1829 33.6905 62.1053 33.5221C62.0277 33.3538 61.9878 33.1734 61.9878 32.9911C61.9878 32.8089 62.0277 32.6284 62.1053 32.4601C62.1829 32.2918 62.2966 32.1389 62.4399 32.0101L63.9999 30.6061C64.1429 30.4771 64.3128 30.3748 64.4999 30.305C64.6869 30.2352 64.8874 30.1992 65.0899 30.1992C65.2924 30.1992 65.4929 30.2352 65.6799 30.305C65.867 30.3748 66.0369 30.4771 66.1799 30.6061L81.2599 44.1781C81.4177 44.302 81.5453 44.4539 81.6348 44.6242C81.7243 44.7946 81.7737 44.9798 81.7799 45.1681Z"
		fill="white"
	/>
	<path
		d="M61.36 64.1214L59.8 65.5074C59.6583 65.6386 59.4889 65.7429 59.3017 65.8141C59.1144 65.8853 58.9133 65.922 58.71 65.922C58.5068 65.922 58.3056 65.8853 58.1183 65.8141C57.9311 65.7429 57.7617 65.6386 57.62 65.5074L55.22 63.3474L44.94 54.1134L42.54 51.9354C42.3967 51.8067 42.283 51.6538 42.2054 51.4854C42.1278 51.3171 42.0879 51.1367 42.0879 50.9544C42.0879 50.7722 42.1278 50.5917 42.2054 50.4234C42.283 50.2551 42.3967 50.1022 42.54 49.9734L44.1 48.5874C44.2384 48.4549 44.4058 48.3497 44.5917 48.2784C44.7776 48.2072 44.978 48.1714 45.18 48.1734C45.3849 48.1721 45.588 48.2082 45.777 48.2793C45.966 48.3504 46.1371 48.4552 46.28 48.5874L53.82 55.3734L56.18 57.4974L61.36 62.0874C61.5157 62.2172 61.6399 62.3745 61.7249 62.5495C61.8099 62.7245 61.8537 62.9134 61.8537 63.1044C61.8537 63.2954 61.8099 63.4843 61.7249 63.6593C61.6399 63.8343 61.5157 63.9917 61.36 64.1214Z"
		fill="white"
	/>
	<path
		d="M54.2199 65.6882L53.0999 66.7142C52.879 66.9109 52.5807 67.0213 52.2699 67.0213C51.9591 67.0213 51.6608 66.9109 51.4399 66.7142L41.1599 57.4802C41.0506 57.3805 40.9644 57.2624 40.906 57.1327C40.8477 57.003 40.8184 56.8641 40.8199 56.7242C40.82 56.4473 40.9423 56.1819 41.1599 55.9862L42.2999 54.9602C42.5232 54.7676 42.8206 54.6602 43.1299 54.6602C43.4392 54.6602 43.7365 54.7676 43.9599 54.9602L54.2199 64.1942C54.4385 64.393 54.5611 64.6614 54.5611 64.9412C54.5611 65.2209 54.4385 65.4893 54.2199 65.6882Z"
		fill="white"
	/>
	<path
		opacity="0.13"
		d="M99.5399 52.008C97.9839 62.2086 92.5883 71.6204 84.2533 78.6731C75.9184 85.7258 65.1482 89.9928 53.7399 90.762L24.8398 64.752C25.0866 64.974 25.3786 65.1513 25.6998 65.274C26.0059 65.3813 26.3314 65.4362 26.6598 65.436C26.9946 65.4348 27.3265 65.3799 27.6398 65.274C27.9549 65.1508 28.2402 64.9735 28.4798 64.752L29.6198 63.744C29.9073 63.4815 30.12 63.1604 30.2398 62.808L31.0398 63.528C31.5731 64.0053 32.2881 64.282 33.0398 64.302C33.7902 64.2768 34.5033 64.0008 35.0398 63.528L36.5798 62.124C37.127 61.6254 37.4339 60.9528 37.4339 60.252C37.4339 59.5512 37.127 58.8786 36.5798 58.38L31.9998 54.168L46.2598 41.334L50.9399 45.546C51.4699 46.0299 52.1854 46.3132 52.9399 46.338C53.6958 46.3188 54.4134 46.0346 54.9399 45.546L56.4799 44.16C56.7581 43.9167 56.9792 43.6257 57.1302 43.3042C57.2813 42.9826 57.3591 42.6371 57.3591 42.288C57.3591 41.9389 57.2813 41.5934 57.1302 41.2718C56.9792 40.9503 56.7581 40.6593 56.4799 40.416L55.6999 39.696C55.9927 39.6212 56.2651 39.4925 56.4999 39.318L56.7399 39.138L57.8599 38.13C58.3411 37.6949 58.6112 37.1059 58.6112 36.492C58.6112 35.8781 58.3411 35.2891 57.8599 34.854L64.2799 40.632L51.9999 51.918L47.2598 47.688C46.9868 47.442 46.6626 47.2468 46.3057 47.1137C45.9488 46.9805 45.5662 46.912 45.1799 46.912C44.7935 46.912 44.4109 46.9805 44.054 47.1137C43.6971 47.2468 43.3729 47.442 43.0998 47.688L41.5599 49.074C41.2841 49.3185 41.0651 49.6099 40.9157 49.9313C40.7662 50.2527 40.6892 50.5976 40.6892 50.946C40.6892 51.2944 40.7662 51.6393 40.9157 51.9607C41.0651 52.2821 41.2841 52.5735 41.5599 52.818L42.3598 53.556C41.9662 53.6597 41.6084 53.8517 41.3198 54.114L40.1798 55.122C39.6991 55.5581 39.4264 56.1457 39.4198 56.76C39.4243 57.3746 39.6973 57.963 40.1798 58.398L50.4399 67.632C50.6779 67.8486 50.9614 68.0206 51.2738 68.1379C51.5862 68.2553 51.9213 68.3157 52.2599 68.3157C52.5984 68.3157 52.9335 68.2553 53.2459 68.1379C53.5583 68.0206 53.8418 67.8486 54.0799 67.632L55.2199 66.624C55.5073 66.3615 55.72 66.0404 55.8399 65.688L56.6399 66.408C57.1742 66.8838 57.8886 67.1602 58.6399 67.182C59.3903 67.1568 60.1033 66.8808 60.6399 66.408L62.1799 65.004C62.4556 64.7595 62.6746 64.4681 62.824 64.1467C62.9735 63.8253 63.0505 63.4804 63.0505 63.132C63.0505 62.7836 62.9735 62.4387 62.824 62.1173C62.6746 61.7959 62.4556 61.5045 62.1799 61.26L57.6599 57.048L71.9999 44.214L76.6799 48.426C77.0231 48.7398 77.45 48.9691 77.9199 49.092C78.1929 49.1632 78.4756 49.1995 78.7599 49.2C79.0442 49.2007 79.3271 49.1644 79.5999 49.092C80.0719 48.9738 80.5001 48.7438 80.8399 48.426L82.3999 47.04C82.6732 46.7943 82.89 46.5024 83.038 46.1812C83.1859 45.86 83.2621 45.5157 83.2621 45.168C83.2621 44.8203 83.1859 44.476 83.038 44.1548C82.89 43.8336 82.6732 43.5417 82.3999 43.296L81.5999 42.576C81.9879 42.461 82.343 42.2705 82.6399 42.018L83.7599 40.992C84.0547 40.7313 84.2744 40.4097 84.3999 40.0553C84.5253 39.7008 84.5528 39.3242 84.4799 38.958C84.4799 38.958 84.4799 38.85 84.4799 38.796C84.4799 38.796 84.4799 38.706 84.4799 38.652C84.4161 38.5011 84.3357 38.3564 84.2399 38.22C84.2069 38.162 84.1667 38.1077 84.1199 38.058L83.9799 37.914L99.5399 52.008Z"
		fill="#010101"
	/>
</svg>
