<svg width="29" height="26" viewBox="0 0 29 26" fill="none" xmlns="http://www.w3.org/2000/svg">
	<path
		d="M21.9708 6.63049C21.8384 6.22837 21.4762 5.97961 20.9765 5.94832C20.8757 5.94166 20.3092 5.96217 19.9269 6.13553L19.9252 6.13194L4.08324 11.7082C3.5737 11.8642 3.01176 12.2329 3.00025 12.7787C2.9991 12.8218 3.00198 12.8664 3.00831 12.912C3.10791 13.6301 3.96061 13.9214 4.0487 13.9486L7.72029 15.1806C8.00241 15.9884 8.93398 18.655 9.13435 19.2254C9.26907 19.607 9.49132 20.1019 9.89838 20.2373C10.0158 20.2804 10.1408 20.303 10.2709 20.303C10.6244 20.303 10.8547 20.143 10.9405 20.0737L13.1877 18.0785L16.7775 20.5902C16.8149 20.6169 16.857 20.6395 16.9013 20.6564C17.199 20.7733 17.4632 20.8154 17.6883 20.8154C17.9238 20.8154 18.1173 20.7697 18.263 20.7164C18.8773 20.4917 19.1231 19.9742 19.1496 19.9157C19.1623 19.8865 19.1726 19.8562 19.1796 19.8255L21.9633 7.22648C22.0272 6.79769 21.9927 6.69665 21.9708 6.63049ZM8.87008 15.0206L14.5539 11.9703L10.6532 15.5879C10.5841 15.6515 10.5449 15.731 10.5213 15.8146C10.5196 15.8207 9.94213 18.0867 9.94213 18.0867L8.87008 15.0206ZM20.8274 7.06389L18.0643 19.5634C18.0315 19.6136 17.9492 19.7229 17.8265 19.7675C17.7235 19.805 17.5893 19.7957 17.427 19.7403L11.9233 15.89L18.3977 9.88692C18.598 9.70176 18.613 9.41248 18.4328 9.21194C18.2532 9.01139 17.9336 8.9601 17.686 9.09294L8.12793 14.222L4.44943 12.9879C4.33658 12.9495 4.22027 12.8746 4.17249 12.8223C4.23524 12.773 4.36191 12.7089 4.48167 12.6705L20.3483 7.08543C20.3581 7.08236 20.3673 7.07825 20.3771 7.07466C20.5216 7.01824 20.7168 6.97619 20.8395 6.96952C20.8337 7.02081 20.8274 7.06338 20.8274 7.06389Z"
		fill="url(#paint0_linear_40_4)"
	/>
	<path
		d="M14.5 25.7714C6.50437 25.7714 0 19.9907 0 12.8857C0 5.78072 6.50437 0 14.5 0C22.4956 0 29 5.78072 29 12.8857C29 19.9907 22.4956 25.7714 14.5 25.7714ZM14.5 0.991207C7.12006 0.991207 1.11538 6.32737 1.11538 12.8857C1.11538 19.444 7.12006 24.7802 14.5 24.7802C21.8799 24.7802 27.8846 19.444 27.8846 12.8857C27.8846 6.32737 21.8799 0.991207 14.5 0.991207Z"
		fill="url(#paint1_linear_40_4)"
	/>
	<defs>
		<linearGradient
			id="paint0_linear_40_4"
			x1="12.5002"
			y1="-0.298854"
			x2="12.5002"
			y2="26.5922"
			gradientUnits="userSpaceOnUse"
		>
			<stop stop-color="#1A6DFF" />
			<stop offset="1" stop-color="#C822FF" />
		</linearGradient>
		<linearGradient
			id="paint1_linear_40_4"
			x1="14.5"
			y1="-0.0827658"
			x2="14.5"
			y2="25.9012"
			gradientUnits="userSpaceOnUse"
		>
			<stop stop-color="#1A6DFF" />
			<stop offset="1" stop-color="#C822FF" />
		</linearGradient>
	</defs>
</svg>
