<svg width="29" height="21" viewBox="0 0 29 21" fill="none" xmlns="http://www.w3.org/2000/svg">
<path d="M15.8738 20.7158C16.2572 20.6194 16.9474 20.4266 16.9474 19.2697C16.9474 19.2697 16.8707 16.3776 17.9443 15.992C19.018 15.6064 20.3984 18.7877 21.8554 20.0409C22.9291 20.9086 23.7726 20.8122 23.7726 20.8122L27.6837 20.7158C27.6837 20.7158 29.6776 20.523 28.7574 18.4985C28.6807 18.3057 28.0672 17.0524 25.7665 14.4495C23.3892 11.5574 23.7726 12.0394 26.6101 7.12285C28.3739 4.13433 29.1408 2.30266 28.9107 1.62784C28.604 0.95301 27.377 1.04941 27.377 1.04941H23.0058C22.5456 1.04941 22.3156 1.14582 22.0855 1.62784C22.0855 1.62784 21.3953 4.03793 20.4751 5.966C18.5579 10.1114 17.791 10.3042 17.4075 10.015C16.7173 9.53294 16.8707 7.70127 16.8707 6.44802C16.8707 2.10985 17.4075 0.567395 15.8738 0.181781C14.8768 -0.0110269 11.3492 -0.203834 10.2755 0.470992C9.73873 0.856606 9.43198 1.53143 9.66205 1.62784C9.89211 1.62784 10.5823 1.72424 10.9657 2.30266C11.5792 3.55591 11.6559 9.53294 10.8124 10.1114C9.66205 11.1718 6.7479 4.13433 6.05771 1.82064C5.90433 1.24222 5.67427 1.14582 5.13745 0.95301H0.919615C0.459487 0.95301 -0.230705 1.04941 0.0760468 2.20626C2.14662 7.60486 6.44115 20.8122 14.1866 20.7158H15.8738Z" fill="white"/>
</svg>
